Simulation
nRows=20
nColumns=15
endheader
time  TH_x TH_y TH_z SC_y  SC_z  SC_x  AC_y  AC_z  AC_x  GH_y  GH_z  GH_yy  EL_x  PS_y
2.0  0.000000  0.000000  0.000000  -30.244158928772624  2.732359318726771  18.64287818368302  57.84801590106571  9.804570180414613  2.1669723010029  59.4942657016076  48.398246236760464  -60.77882297662013  23.011033550412108  0.000000
2.04  0.000000  0.000000  0.000000  -30.26073092436619  2.677209179143406  18.68990713423136  57.91118713874744  9.772818243498602  2.011199747405742  60.17677746280839  48.3008706787276  -61.96548251638973  22.937270160050232  0.000000
2.08  0.000000  0.000000  0.000000  -30.254661946458185  2.6168259866196704  18.698195644963086  57.96794160242743  9.771096365089647  1.902479816750346  61.054724884901965  48.17627757200606  -63.52340149801836  22.92197950224286  0.000000
2.12  0.000000  0.000000  0.000000  -30.19047475641535  2.5378756895236596  18.64040581055657  58.02864042497231  9.80033682479022  1.8456403835453736  62.11096405529118  47.992810443086405  -65.40947840345234  22.95853191639844  0.000000
2.16  0.000000  0.000000  0.000000  -30.030383508528185  2.4333920638789386  18.47988185823286  58.10386739509198  9.86145575260052  1.8416033078914917  63.306920918926586  47.73922344895945  -67.46523945051123  23.03243172905324  0.000000
2.2  0.000000  0.000000  0.000000  -29.744075824128142  2.3094802644860315  18.17862678844171  58.20303302339563  9.945475623492717  1.8910831463476825  64.57163405428415  47.42819057505402  -69.4606170205283  23.12951218934323  0.000000
2.24  0.000000  0.000000  0.000000  -29.31277725753806  2.1730235322712517  17.715506833849822  58.33119495257336  10.041569462751857  1.9890582038602571  65.84929435498063  47.077472580490436  -71.2091446191026  23.229458552761805  0.000000
2.2800000000000002  0.000000  0.000000  0.000000  -28.760625951368663  2.0337264559277375  17.107288736631354  58.49061402912078  10.13971039207151  2.1300410831545973  67.12324441286253  46.70610959386601  -72.62754781802208  23.30550110016395  0.000000
2.32  0.000000  0.000000  0.000000  -28.12791742480232  1.8967753112684278  16.387700082291655  58.673452627444036  10.238340220127228  2.2985440121628318  68.40818245321839  46.340478024835676  -73.7248177750035  23.329029557580284  0.000000
2.36  0.000000  0.000000  0.000000  -27.48392659064364  1.7608856799809056  15.629479991189745  58.873493345834405  10.337408620809958  2.4763132529222514  69.73459794970063  45.997608897640994  -74.55936686409379  23.27505999068955  0.000000
2.4  0.000000  0.000000  0.000000  -26.880103191551232  1.6247760613943594  14.888725191966994  59.075580783368906  10.441996210953732  2.6400184311575754  71.10429614384523  45.701955190656015  -75.18680939531386  23.148164865275863  0.000000
2.44  0.000000  0.000000  0.000000  -26.381122585190315  1.4783865134773921  14.238501947150247  59.277313921266824  10.561577635159926  2.765546605327808  72.51353421240924  45.462775239771005  -75.66408506006029  22.977318676143582  0.000000
2.48  0.000000  0.000000  0.000000  -26.025547780536755  1.3162715893325954  13.718079649025338  59.476311505065695  10.7102687790415  2.8359126370993724  73.94254411795535  45.290794657022595  -76.03107735377218  22.803851721078413  0.000000
2.52  0.000000  0.000000  0.000000  -25.821824268833495  1.1422610148513592  13.341178498200406  59.672849023844186  10.886658424386841  2.8552387341960266  75.35415000280284  45.18763258065602  -76.29395385368836  22.657438402596647  0.000000
2.56  0.000000  0.000000  0.000000  -25.714250114509923  0.9732122058122172  13.080719137710101  59.857138957475975  11.064271449487867  2.8537239028514123  76.68542181591768  45.13933085995321  -76.41376979238505  22.541080840260378  0.000000
2.6  0.000000  0.000000  0.000000  -25.606989985807566  0.8400725682596245  12.870641800954719  60.00819989776264  11.198202568309737  2.88045187596883  77.84156945925793  45.12604900096406  -76.31906142098946  22.446630848858497  0.000000
2.64  0.000000  0.000000  0.000000  -25.420527246292714  0.7620203420439434  12.656355142141301  60.11207728473887  11.257787523996717  2.972031637245529  78.76207500208443  45.1146230028242  -75.9777078609133  22.363869937596274  0.000000
2.68  0.000000  0.000000  0.000000  -25.134091595427233  0.7395177574934759  12.406462058381853  60.163997438063866  11.247056770815112  3.134793518828277  79.4299870735578  45.0804077106509  -75.43823421802912  22.303648918725205  0.000000
2.72  0.000000  0.000000  0.000000  -24.778757817437096  0.7565534340024924  12.123333015946166  60.16129988031001  11.197518057124396  3.341217257881189  79.87472099347082  45.007811183159525  -74.823649350208  22.295093506197173  0.000000
2.7600000000000002  0.000000  0.000000  0.000000  -24.428069243787455  0.7908283317707975  11.845302556478423  60.111745699916554  11.148628195729582  3.545342463912661  80.13796627451438  44.886374006031446  -74.28963244917566  22.365509746437407  0.000000
